<svg xmlns="http://www.w3.org/2000/svg" width="1024" height="1024" viewBox="0 0 1024 1024">
<g>
<path d="M 398.22 741.96 C394.43,743.01 393.28,743.10 391.50,742.51 C390.95,742.33 389.30,741.91 387.83,741.59 C384.17,740.78 379.29,736.49 377.05,732.10 C372.85,723.87 373.68,710.91 378.78,704.85 C385.46,696.91 398.72,695.92 406.32,702.79 C412.53,708.41 414.57,723.35 410.24,731.62 C407.56,736.75 403.08,740.61 398.22,741.96 ZM 667.44 733.50 L 667.50 741.50 L 663.96 741.80 C662.02,741.96 660.11,741.77 659.71,741.38 C659.32,740.99 659.00,731.29 659.00,719.83 L 659.00 699.00 L 669.76 699.00 L 673.26 709.25 C675.19,714.89 677.08,720.51 677.45,721.75 C677.83,722.99 678.44,723.99 678.82,723.99 C679.19,723.98 681.33,718.46 683.57,711.74 L 687.63 699.50 L 693.34 699.20 L 699.04 698.90 L 698.77 720.20 L 698.50 741.50 L 694.17 741.81 L 689.85 742.12 L 690.17 728.06 C690.35,720.33 690.16,714.00 689.75,714.00 C689.34,714.00 688.97,714.79 688.94,715.75 C688.91,716.71 687.21,722.00 685.17,727.50 C681.61,737.07 681.32,737.50 678.50,737.50 C675.62,737.50 675.45,737.22 671.42,725.23 C669.15,718.48 666.98,712.64 666.60,712.26 C666.21,711.88 666.23,714.70 666.64,718.53 C667.05,722.36 667.41,729.10 667.44,733.50 ZM 334.47 729.50 L 334.50 741.50 L 330.96 741.80 C329.02,741.96 327.11,741.77 326.71,741.38 C326.32,740.99 326.00,731.27 326.00,719.78 L 326.00 698.90 L 331.68 699.20 L 337.35 699.50 L 341.67 712.00 C344.04,718.88 346.01,724.72 346.03,725.00 C346.08,725.46 353.47,704.77 354.70,700.75 C355.12,699.37 356.36,699.00 360.64,699.00 L 366.04 699.00 L 365.77 720.25 L 365.50 741.50 L 357.50 741.50 L 357.73 727.20 C357.88,718.06 357.61,713.12 356.98,713.51 C356.44,713.85 356.01,715.10 356.01,716.31 C356.02,717.51 354.37,722.89 352.34,728.25 C348.93,737.29 348.46,738.00 345.95,738.00 C344.24,738.00 343.03,737.35 342.68,736.25 C342.37,735.29 340.53,730.00 338.59,724.50 C336.65,719.00 335.05,713.71 335.03,712.75 C335.01,711.79 334.49,711.00 333.88,711.00 C333.10,711.00 333.01,712.01 333.59,714.25 C334.06,716.04 334.45,722.90 334.47,729.50 ZM 428.78 727.58 L 428.50 741.50 L 421.00 742.12 L 421.00 699.00 L 431.60 699.00 L 435.94 711.56 C438.33,718.47 440.60,723.75 440.99,723.31 C441.74,722.46 447.81,705.09 448.71,701.25 C449.17,699.26 449.86,699.00 454.62,699.00 L 460.00 699.00 L 460.00 742.00 L 451.79 742.00 L 452.14 726.50 C452.34,717.97 452.16,711.00 451.75,711.00 C451.34,711.00 450.97,712.24 450.94,713.75 C450.91,715.26 449.17,721.22 447.07,727.00 C443.44,736.99 443.11,737.50 440.40,737.50 C437.70,737.50 437.35,736.96 433.83,727.50 C431.79,722.00 430.09,716.60 430.04,715.50 C429.95,712.86 428.31,710.35 427.33,711.33 C426.91,711.76 427.12,712.46 427.81,712.88 C428.73,713.45 428.99,717.26 428.78,727.58 ZM 650.00 734.00 L 650.00 742.00 L 637.17 742.00 C630.11,742.00 624.03,741.70 623.67,741.33 C623.30,740.97 623.00,731.29 623.00,719.83 L 623.00 699.00 L 650.12 699.00 L 649.50 706.50 L 641.25 706.79 L 633.00 707.08 L 633.00 716.00 L 647.12 716.00 L 646.50 723.50 L 639.75 723.80 L 633.00 724.09 L 633.00 734.00 ZM 573.94 740.18 C568.75,744.02 555.84,742.79 551.54,738.05 C549.85,736.18 549.84,735.89 551.39,733.53 C553.27,730.66 554.45,730.47 558.00,732.50 C561.07,734.25 568.17,734.43 569.80,732.80 C572.63,729.97 571.10,727.92 563.60,724.45 C554.45,720.22 551.00,716.45 551.00,710.65 C551.00,705.38 553.11,702.31 558.38,699.91 C563.77,697.47 568.02,697.52 574.06,700.12 C579.62,702.51 580.05,703.66 576.59,706.91 C574.64,708.75 573.81,708.97 572.16,708.09 C569.30,706.56 562.47,706.73 561.11,708.37 C559.10,710.79 560.96,712.71 568.49,715.99 C577.93,720.11 580.50,722.79 580.50,728.51 C580.50,733.11 578.37,736.90 573.94,740.18 ZM 503.58 741.10 C501.34,742.12 498.38,742.93 497.00,742.91 C493.14,742.83 485.76,740.20 483.07,737.94 L 480.65 735.90 L 483.30 733.25 C485.92,730.63 485.98,730.62 489.51,732.30 C494.47,734.67 500.63,734.55 501.96,732.07 C503.63,728.95 502.23,727.32 495.38,724.41 C486.74,720.74 483.00,716.48 483.00,710.33 C483.00,706.37 483.49,705.28 486.51,702.43 C492.09,697.16 502.95,696.84 508.92,701.76 L 511.02 703.50 L 508.70 706.39 C506.69,708.87 506.08,709.11 504.25,708.14 C501.07,706.43 493.34,706.68 492.64,708.50 C491.56,711.31 493.12,712.78 500.62,716.05 C509.74,720.03 512.00,722.60 512.00,729.00 C512.00,734.76 509.44,738.44 503.58,741.10 ZM 536.00 733.00 L 535.50 741.50 L 531.46 741.80 C529.24,741.96 527.11,741.77 526.71,741.38 C526.32,740.99 526.00,737.31 526.00,733.21 C526.00,726.16 525.67,725.04 520.00,713.08 C516.70,706.11 514.00,700.10 514.00,699.71 C514.00,699.32 516.20,699.00 518.89,699.00 L 523.77 699.00 L 527.11 708.00 C528.94,712.95 530.73,717.00 531.09,717.00 C531.44,717.00 533.18,712.95 534.95,708.00 L 538.17 699.00 L 543.08 699.00 C545.79,699.00 548.00,699.22 548.00,699.49 C548.00,699.76 545.41,705.50 542.25,712.24 C537.01,723.42 536.46,725.25 536.00,733.00 ZM 605.05 707.00 L 604.50 741.50 L 600.46 741.80 C598.24,741.96 596.11,741.77 595.71,741.38 C595.32,740.99 595.00,733.11 595.00,723.88 L 595.00 707.10 L 589.25 706.80 L 583.50 706.50 L 582.88 699.00 L 616.00 699.00 L 616.00 707.00 ZM 388.24 731.75 C391.36,735.08 396.18,734.77 399.32,731.03 C403.76,725.76 404.01,714.82 399.80,709.48 C398.07,707.27 397.12,706.94 393.17,707.20 C389.20,707.46 388.25,707.97 386.28,710.90 C382.46,716.59 383.40,726.58 388.24,731.75 Z" fill="rgb(3,3,3)" data-index="0"></path>
<path d="M 513.59 577.00 C510.90,580.03 507.91,583.78 506.95,585.35 C505.25,588.12 505.18,588.14 504.51,586.03 C503.31,582.26 461.54,537.66 415.51,491.00 C368.96,443.82 356.43,432.10 336.37,416.95 C331.22,413.06 327.00,409.66 327.00,409.38 C327.00,408.76 328.60,409.65 332.50,412.43 C337.89,416.28 341.26,418.23 340.56,417.10 C340.19,416.50 340.32,416.00 340.86,416.00 C341.40,416.00 342.81,414.43 343.99,412.51 C348.09,405.89 356.68,403.66 369.08,406.02 C375.01,407.14 393.94,415.92 397.32,419.11 C398.52,420.24 402.13,423.27 405.35,425.83 C414.26,432.95 443.98,457.77 448.50,461.87 C450.70,463.87 455.88,468.39 460.00,471.93 C468.95,479.61 479.57,490.34 490.50,502.72 C499.32,512.72 503.37,515.63 507.16,514.68 C508.59,514.32 517.06,506.21 527.41,495.30 C537.20,484.98 551.12,471.42 558.35,465.16 C565.58,458.90 572.85,452.59 574.50,451.13 C576.15,449.67 582.00,444.60 587.50,439.86 C593.00,435.12 602.90,426.46 609.50,420.63 C616.10,414.79 622.27,410.02 623.22,410.01 C624.17,410.00 627.54,408.84 630.72,407.42 C635.55,405.27 637.65,404.90 643.50,405.20 C652.11,405.64 664.32,410.83 666.96,415.17 L 668.62 417.91 L 674.31 413.88 C680.06,409.80 682.31,409.40 677.27,413.36 C675.76,414.54 668.23,420.90 660.52,427.50 C635.17,449.19 551.92,533.91 513.59,577.00 ZM 527.61 424.37 C522.87,427.57 520.00,427.80 520.00,424.96 C520.00,423.85 519.32,421.89 518.49,420.63 C517.03,418.40 517.14,418.24 521.74,415.75 C526.62,413.12 547.52,404.75 552.00,403.64 C553.38,403.30 553.93,403.28 553.24,403.59 C552.55,403.91 552.23,404.56 552.52,405.04 C552.82,405.51 552.04,406.44 550.80,407.11 C549.56,407.77 544.71,411.33 540.02,415.03 C535.33,418.72 529.75,422.92 527.61,424.37 ZM 447.00 297.72 C433.15,304.26 430.73,305.24 431.50,304.01 C432.37,302.60 448.60,294.96 457.71,291.67 C467.46,288.16 477.09,286.33 493.67,284.87 C505.97,283.79 509.60,283.84 521.17,285.27 C528.50,286.17 538.81,288.03 544.07,289.41 C554.10,292.02 567.08,297.14 565.23,297.76 C564.64,297.95 562.35,297.20 560.15,296.08 C555.57,293.74 545.33,290.81 533.00,288.31 C526.72,287.04 519.80,286.60 506.50,286.65 C480.31,286.75 463.67,289.84 447.00,297.72 ZM 446.40 301.54 C440.40,304.08 433.53,307.31 431.12,308.70 C428.71,310.10 427.08,310.69 427.49,310.01 C428.66,308.13 453.10,296.52 460.74,294.23 C481.96,287.85 511.39,286.68 534.00,291.31 C547.52,294.08 561.00,298.11 565.00,300.58 C568.12,302.51 566.71,302.16 554.50,297.95 C541.22,293.37 520.32,290.00 505.23,290.00 C483.13,290.00 465.37,293.48 446.40,301.54 ZM 456.98 289.05 C453.41,290.19 446.11,293.36 440.75,296.08 C435.39,298.79 431.00,300.65 431.00,300.19 C431.00,298.84 453.91,288.27 461.74,286.01 C471.77,283.11 493.70,280.05 504.54,280.02 C521.57,279.98 546.41,284.45 557.24,289.51 C559.03,290.34 559.60,290.75 558.50,290.42 C549.78,287.75 531.67,283.93 523.00,282.93 C503.97,280.75 474.17,283.51 456.98,289.05 ZM 440.12 308.04 C424.67,315.42 424.58,314.44 440.00,306.58 C447.87,302.56 453.05,300.62 466.77,296.52 C487.87,290.22 521.67,290.05 540.82,296.14 C546.84,298.06 543.56,297.96 533.95,295.93 C521.38,293.27 500.70,292.36 488.79,293.94 C471.22,296.26 454.86,301.01 440.12,308.04 ZM 439.20 286.59 C430.36,290.50 431.77,289.19 441.50,284.45 C446.45,282.05 452.52,279.60 455.00,279.01 C478.98,273.35 481.79,272.93 499.56,272.33 C511.69,271.92 520.39,272.12 526.06,272.94 C535.78,274.35 549.95,277.59 550.87,278.60 C551.22,278.98 550.38,279.00 549.00,278.64 C514.42,269.62 470.36,272.81 439.20,286.59 ZM 566.92 288.01 C569.83,289.72 565.97,288.88 557.00,285.86 C538.89,279.77 529.77,278.50 504.25,278.50 C491.46,278.50 481.00,278.23 481.00,277.90 C481.00,277.05 495.67,276.01 507.50,276.02 C518.19,276.04 534.41,278.01 543.81,280.45 C551.37,282.41 564.92,286.84 566.92,288.01 ZM 459.42 284.07 C453.49,285.73 445.01,288.87 440.57,291.04 C436.13,293.20 433.40,294.27 434.50,293.41 C443.04,286.70 476.17,275.77 479.10,278.70 C479.80,279.40 478.56,279.93 475.16,280.38 C472.43,280.75 465.34,282.40 459.42,284.07 ZM 356.01 717.08 C356.02,717.86 354.37,722.89 352.34,728.25 C354.37,722.89 356.02,717.51 356.01,716.31 C356.01,715.10 356.44,713.85 356.98,713.51 C357.61,713.12 357.88,718.06 357.73,727.20 L 357.50 741.50 L 357.50 729.34 C357.50,722.65 357.16,716.84 356.75,716.42 C356.34,716.01 356.01,716.30 356.01,717.08 ZM 667.18 725.87 C667.04,723.13 666.84,720.46 666.64,718.53 C666.23,714.70 666.21,711.88 666.60,712.26 C666.87,712.53 668.05,715.58 669.53,719.74 C668.64,717.49 667.96,716.05 667.72,716.04 C667.36,716.02 667.14,720.24 667.18,725.87 Z" fill="rgb(68,149,197)" data-index="1"></path>
<path d="M 512.88 661.45 C510.77,665.88 508.43,671.94 507.68,674.91 C506.10,681.19 505.78,680.91 501.98,669.93 C497.47,656.91 492.47,649.17 464.91,612.50 C448.24,590.33 434.36,573.51 395.90,528.88 L 394.31 527.04 C359.55,486.72 353.34,479.51 352.24,480.22 C352.00,480.38 352.00,480.91 352.00,481.55 L 352.00 481.69 C352.00,484.94 356.83,502.74 359.58,509.60 C367.52,529.45 384.69,552.06 413.04,580.00 C425.61,592.40 429.02,596.46 436.50,608.00 C448.75,626.90 463.63,649.07 470.33,658.41 C473.46,662.76 475.86,666.48 475.66,666.67 C475.11,667.23 456.66,658.84 438.81,649.92 C418.85,639.95 407.84,633.26 393.50,622.39 C363.64,599.76 345.26,576.41 328.64,540.00 C323.05,527.75 315.40,503.78 316.51,501.98 C316.84,501.44 316.61,501.00 316.00,501.00 C315.38,501.00 314.97,500.21 315.09,499.25 C315.21,498.29 315.02,496.83 314.66,496.00 C314.30,495.17 313.84,492.70 313.62,490.50 C313.41,488.30 312.98,485.83 312.68,485.00 C311.55,481.94 309.95,466.10 309.50,453.50 C308.49,425.82 308.01,278.00 308.92,278.00 C309.44,278.00 310.39,280.59 311.04,283.75 C311.70,286.91 313.03,291.08 314.01,293.00 C314.99,294.92 323.34,303.48 332.57,312.00 C365.90,342.78 378.68,354.73 392.48,368.00 C414.77,389.44 467.69,438.96 477.00,447.08 C481.67,451.16 489.73,458.44 494.91,463.25 C500.08,468.06 504.75,472.00 505.28,472.00 C506.45,472.00 515.29,464.02 556.79,425.50 C574.56,409.00 593.69,391.26 599.30,386.08 C604.91,380.90 618.30,368.30 629.06,358.08 C639.82,347.86 659.07,329.67 671.84,317.65 C684.61,305.63 695.68,294.59 696.44,293.11 C697.20,291.64 698.13,288.65 698.50,286.47 C701.57,268.36 702.00,279.10 701.97,373.81 C701.93,476.24 701.75,480.31 696.17,502.50 C689.74,528.05 676.28,557.75 661.95,578.00 C648.33,597.25 622.44,620.97 598.17,636.43 C588.44,642.62 567.89,652.92 550.00,660.58 C542.03,664.00 535.40,666.70 535.28,666.59 C535.16,666.48 546.04,649.87 559.47,629.68 L 583.88 592.98 L 600.77 576.24 C637.20,540.13 651.69,518.03 656.98,490.50 C657.62,487.20 658.36,483.71 658.64,482.75 C658.91,481.79 658.74,481.00 658.26,481.00 C657.77,481.00 650.33,489.21 641.71,499.25 C619.52,525.08 616.69,528.30 597.94,549.00 C572.84,576.71 556.33,597.06 537.49,623.50 C522.23,644.92 516.67,653.49 512.88,661.45 ZM 513.59 577.00 C551.92,533.91 635.17,449.19 660.52,427.50 C668.23,420.90 675.76,414.54 677.27,413.36 C682.31,409.40 680.06,409.80 674.31,413.88 L 668.62 417.91 L 666.96 415.17 C664.32,410.83 652.11,405.64 643.50,405.20 C637.65,404.90 635.55,405.27 630.72,407.42 C627.54,408.84 624.17,410.00 623.22,410.01 C622.27,410.02 616.10,414.79 609.50,420.63 C602.90,426.46 593.00,435.12 587.50,439.86 C582.00,444.60 576.15,449.67 574.50,451.13 C572.85,452.59 565.58,458.90 558.35,465.16 C551.12,471.42 537.20,484.98 527.41,495.30 C517.06,506.21 508.59,514.32 507.16,514.68 C503.37,515.63 499.32,512.72 490.50,502.72 C479.57,490.34 468.95,479.61 460.00,471.93 C455.88,468.39 450.70,463.87 448.50,461.87 C443.98,457.77 414.26,432.95 405.35,425.83 C402.13,423.27 398.52,420.24 397.32,419.11 C393.94,415.92 375.01,407.14 369.08,406.02 C356.68,403.66 348.09,405.89 343.99,412.51 C342.81,414.43 341.40,416.00 340.86,416.00 C340.32,416.00 340.19,416.50 340.56,417.10 C341.26,418.23 337.89,416.28 332.50,412.43 C328.60,409.65 327.00,408.76 327.00,409.38 C327.00,409.66 331.22,413.06 336.37,416.95 C356.43,432.10 368.96,443.82 415.51,491.00 C461.54,537.66 503.31,582.26 504.51,586.03 C505.18,588.14 505.25,588.12 506.95,585.35 C507.91,583.78 510.90,580.03 513.59,577.00 ZM 413.45 335.44 C409.32,339.16 402.81,345.74 399.00,350.07 C395.19,354.39 391.81,357.50 391.48,356.97 C391.16,356.45 385.18,350.77 378.20,344.35 C371.21,337.93 365.37,332.37 365.22,332.00 C365.07,331.63 368.89,327.12 373.72,321.99 C411.61,281.69 453.79,262.75 505.50,262.79 C550.09,262.82 588.53,277.39 621.59,306.81 C631.04,315.21 642.33,327.08 644.42,330.80 C645.16,332.11 642.71,334.96 632.03,345.20 L 618.71 357.95 L 614.70 353.23 C608.57,345.99 593.38,331.57 586.85,326.78 C555.80,304.02 521.85,295.21 485.50,300.49 C458.08,304.46 436.02,315.17 413.45,335.44 ZM 527.61 424.37 C529.75,422.92 535.33,418.72 540.02,415.03 C544.71,411.33 549.56,407.77 550.80,407.11 C552.04,406.44 552.82,405.51 552.52,405.04 C552.23,404.56 552.55,403.91 553.24,403.59 C553.93,403.28 553.38,403.30 552.00,403.64 C551.80,403.69 551.56,403.75 551.29,403.83 C552.60,403.38 553.91,402.93 555.21,402.49 C560.55,400.69 566.53,398.22 568.51,396.99 C574.16,393.50 573.66,395.35 567.80,399.63 C564.89,401.76 554.63,410.86 545.00,419.87 C535.38,428.87 525.25,437.52 522.50,439.11 C516.78,442.39 511.13,442.77 504.23,440.33 C498.27,438.22 494.78,433.36 494.20,426.37 C493.75,420.93 493.78,420.84 498.30,416.64 L 502.86 412.39 L 503.93 389.61 C504.52,377.09 505.00,362.37 505.00,356.92 C505.00,350.97 505.40,347.00 506.00,347.00 C506.58,347.00 507.00,350.08 506.99,354.25 C506.98,358.24 507.69,370.95 508.55,382.50 C511.01,415.37 510.67,413.38 514.15,415.96 L 517.20 418.21 L 521.74 415.75 C517.14,418.24 517.03,418.40 518.49,420.63 C519.32,421.89 520.00,423.85 520.00,424.96 C520.00,427.80 522.87,427.57 527.61,424.37 ZM 437.43 364.73 C448.63,375.50 449.78,376.92 448.60,378.53 C447.40,380.17 446.27,379.34 435.40,368.87 C428.85,362.58 420.82,354.90 417.54,351.81 C412.37,346.94 411.76,345.99 412.92,344.60 C413.65,343.72 414.66,343.00 415.17,343.00 C415.68,343.00 417.18,341.76 418.50,340.25 L 420.90 337.50 L 437.13 353.68 C451.16,367.68 453.18,370.08 452.06,371.43 C451.34,372.29 450.22,373.00 449.57,373.00 C448.92,373.00 443.33,368.22 437.15,362.38 C430.97,356.53 425.70,351.97 425.43,352.24 C425.16,352.51 430.56,358.13 437.43,364.73 ZM 582.68 362.79 C573.71,371.71 565.86,379.00 565.24,379.00 C560.42,379.00 564.96,372.93 580.90,358.04 C587.01,352.34 591.79,347.46 591.53,347.19 C591.26,346.93 584.57,352.84 576.66,360.33 C562.44,373.79 562.25,373.93 560.45,371.95 C558.67,369.98 558.75,369.82 564.07,364.39 C567.05,361.34 574.39,354.28 580.36,348.70 L 591.23 338.56 L 593.41 341.10 C594.60,342.49 596.35,343.92 597.29,344.28 C598.23,344.64 599.00,345.31 599.00,345.76 C599.00,346.21 591.66,353.87 582.68,362.79 ZM 447.00 297.72 C463.67,289.84 480.31,286.75 506.50,286.65 C519.80,286.60 526.72,287.04 533.00,288.31 C545.33,290.81 555.57,293.74 560.15,296.08 C562.35,297.20 564.64,297.95 565.23,297.76 C567.08,297.14 554.10,292.02 544.07,289.41 C538.81,288.03 528.50,286.17 521.17,285.27 C509.60,283.84 505.97,283.79 493.67,284.87 C477.09,286.33 467.46,288.16 457.71,291.67 C448.60,294.96 432.37,302.60 431.50,304.01 C430.73,305.24 433.15,304.26 447.00,297.72 ZM 446.40 301.54 C465.37,293.48 483.13,290.00 505.23,290.00 C520.32,290.00 541.22,293.37 554.50,297.95 C566.71,302.16 568.12,302.51 565.00,300.58 C561.00,298.11 547.52,294.08 534.00,291.31 C511.39,286.68 481.96,287.85 460.74,294.23 C453.10,296.52 428.66,308.13 427.49,310.01 C427.08,310.69 428.71,310.10 431.12,308.70 C433.53,307.31 440.40,304.08 446.40,301.54 ZM 456.98 289.05 C474.17,283.51 503.97,280.75 523.00,282.93 C531.67,283.93 549.78,287.75 558.50,290.42 C559.60,290.75 559.03,290.34 557.24,289.51 C546.41,284.45 521.57,279.98 504.54,280.02 C493.70,280.05 471.77,283.11 461.74,286.01 C453.91,288.27 431.00,298.84 431.00,300.19 C431.00,300.65 435.39,298.79 440.75,296.08 C446.11,293.36 453.41,290.19 456.98,289.05 ZM 440.12 308.04 C454.86,301.01 471.22,296.26 488.79,293.94 C500.70,292.36 521.38,293.27 533.95,295.93 C543.56,297.96 546.84,298.06 540.82,296.14 C521.67,290.05 487.87,290.22 466.77,296.52 C453.05,300.62 447.87,302.56 440.00,306.58 C424.58,314.44 424.67,315.42 440.12,308.04 ZM 439.20 286.59 C470.36,272.81 514.42,269.62 549.00,278.64 C550.38,279.00 551.22,278.98 550.87,278.60 C549.95,277.59 535.78,274.35 526.06,272.94 C520.39,272.12 511.69,271.92 499.56,272.33 C481.79,272.93 478.98,273.35 455.00,279.01 C452.52,279.60 446.45,282.05 441.50,284.45 C431.77,289.19 430.36,290.50 439.20,286.59 ZM 515.00 329.04 C515.00,337.82 514.66,344.99 514.25,344.97 C513.84,344.95 512.71,344.48 511.75,343.92 C510.20,343.02 510.00,341.09 510.00,326.95 C510.00,318.18 510.25,311.00 510.57,311.00 C510.88,311.00 512.00,311.47 513.07,312.04 C514.85,312.99 515.00,314.27 515.00,329.04 ZM 501.00 327.93 C501.00,345.34 500.75,346.40 497.22,344.16 C496.26,343.55 496.01,339.49 496.22,327.42 C496.50,311.77 496.54,311.49 498.75,311.18 L 501.00 310.86 ZM 566.92 288.01 C564.92,286.84 551.37,282.41 543.81,280.45 C534.41,278.01 518.19,276.04 507.50,276.02 C495.67,276.01 481.00,277.05 481.00,277.90 C481.00,278.23 491.46,278.50 504.25,278.50 C529.77,278.50 538.89,279.77 557.00,285.86 C565.97,288.88 569.83,289.72 566.92,288.01 ZM 507.00 327.50 C507.00,343.61 506.45,347.16 504.45,343.92 C504.09,343.33 503.55,335.45 503.27,326.42 C502.75,310.18 502.77,310.00 504.87,310.00 C506.96,310.00 507.00,310.32 507.00,327.50 ZM 459.42 284.07 C465.34,282.40 472.43,280.75 475.16,280.38 C478.56,279.93 479.80,279.40 479.10,278.70 C476.17,275.77 443.04,286.70 434.50,293.41 C433.40,294.27 436.13,293.20 440.57,291.04 C445.01,288.87 453.49,285.73 459.42,284.07 ZM 428.78 727.58 C428.99,717.26 428.73,713.45 427.81,712.88 C427.12,712.46 426.91,711.76 427.33,711.33 C428.31,710.35 429.95,712.86 430.04,715.50 C430.07,716.26 430.90,719.08 432.08,722.57 L 429.50 715.50 L 428.50 741.50 ZM 334.47 729.50 C334.45,722.90 334.06,716.04 333.59,714.25 C333.01,712.01 333.10,711.00 333.88,711.00 C334.49,711.00 335.01,711.79 335.03,712.75 C335.05,713.71 336.65,719.00 338.59,724.50 C339.49,727.04 340.36,729.54 341.08,731.58 C340.98,731.32 340.87,731.04 340.76,730.75 C339.28,726.76 337.33,721.14 336.42,718.25 C335.51,715.36 334.69,713.00 334.60,713.00 C334.51,713.00 334.44,719.41 334.46,727.25 L 334.50 741.50 ZM 452.00 732.88 L 451.99 712.50 L 449.54 719.57 C450.38,716.79 450.92,714.59 450.94,713.75 C450.97,712.24 451.34,711.00 451.75,711.00 C452.16,711.00 452.34,717.97 452.14,726.50 ZM 539.45 408.16 C532.42,410.92 524.69,414.18 521.85,415.70 C525.18,413.89 531.76,411.10 539.45,408.16 ZM 347.58 737.72 C347.14,737.95 346.66,738.00 346.06,738.00 L 346.01 738.00 C346.63,738.00 347.13,737.94 347.58,737.72 Z" fill="rgb(55,39,132)" data-index="2" style="opacity: 1;"></path>

</g>
</svg>